<?xml version="1.0" standalone="no"?>
<!DOCTYPE svg PUBLIC "-//W3C//DTD SVG 20010904//EN"
 "http://www.w3.org/TR/2001/REC-SVG-20010904/DTD/svg10.dtd">
<svg version="1.0" xmlns="http://www.w3.org/2000/svg"
 width="280.000000pt" height="280.000000pt" viewBox="0 0 280.000000 280.000000"
 preserveAspectRatio="xMidYMid meet">
<metadata>
Created by potrace 1.11, written by Peter Selinger 2001-2013
</metadata>
<g transform="translate(0.000000,280.000000) scale(0.100000,-0.100000)"
fill="#000000" stroke="none">
<path d="M1278 2472 c-36 -3 -38 -5 -52 -55 -50 -176 -308 -1105 -311 -1119
-2 -9 -11 -41 -19 -70 -28 -95 -54 -190 -92 -328 -20 -74 -40 -141 -43 -148
-5 -8 -13 11 -21 45 -7 32 -24 103 -37 157 -13 55 -28 118 -32 140 -8 39 -60
262 -152 656 -22 96 -42 182 -44 190 -25 108 -57 248 -60 260 -2 8 -13 53 -24
100 -11 47 -22 97 -25 110 -11 62 -4 60 -177 60 l-158 0 14 -47 c17 -60 75
-276 85 -323 8 -35 105 -403 181 -690 22 -84 42 -161 44 -170 3 -15 113 -432
142 -540 8 -30 16 -62 18 -70 7 -36 79 -305 82 -309 2 -3 237 -5 294 -2 10 1
20 13 23 28 4 16 13 51 21 78 8 28 47 165 86 305 38 140 97 350 129 465 32
116 95 341 140 500 44 160 88 315 97 345 l15 55 24 -85 c13 -47 33 -116 43
-155 11 -38 56 -200 101 -360 45 -159 87 -312 95 -340 7 -27 39 -140 70 -250
31 -110 58 -207 60 -215 20 -83 99 -357 106 -364 6 -7 215 -12 290 -7 9 1 21
17 27 39 12 38 51 185 57 212 2 8 29 111 60 229 31 117 58 221 60 230 2 9 14
57 28 106 14 50 71 266 127 480 56 215 123 467 147 560 57 216 72 278 73 290
0 8 -158 11 -299 6 -20 -1 -28 -17 -37 -68 -3 -16 -18 -82 -34 -149 -16 -66
-31 -131 -34 -145 -2 -13 -10 -46 -16 -74 -6 -27 -13 -57 -15 -65 -2 -8 -33
-143 -70 -300 -36 -157 -93 -402 -126 -545 -34 -143 -62 -264 -63 -270 -2 -5
-6 -28 -11 -50 -15 -76 -22 -68 -59 66 -21 74 -39 141 -41 149 -2 8 -16 56
-30 105 -15 50 -28 97 -30 105 -3 17 -70 257 -85 310 -6 19 -66 234 -134 478
-68 244 -126 446 -129 449 -6 5 -223 10 -279 5z"/>
</g>
</svg>
